<?xml version="1.0"?>
<svg width="33" height="32" xmlns="http://www.w3.org/2000/svg" xmlns:svg="http://www.w3.org/2000/svg">
 <g class="layer">
  <title>Layer 1</title>
  <path d="m25.47,19.71c-0.41,0.4 -0.61,0.98 -0.51,1.55l1.42,7.88c0.12,0.66 -0.16,1.34 -0.72,1.72c-0.55,0.4 -1.27,0.45 -1.87,0.13l-7.09,-3.69c-0.24,-0.14 -0.52,-0.21 -0.8,-0.21l-0.43,0c-0.15,0.02 -0.3,0.07 -0.43,0.14l-7.09,3.71c-0.35,0.18 -0.75,0.24 -1.14,0.18c-0.94,-0.18 -1.58,-1.08 -1.42,-2.03l1.42,-7.88c0.1,-0.57 -0.09,-1.15 -0.51,-1.56l-5.77,-5.6c-0.49,-0.47 -0.66,-1.17 -0.43,-1.81c0.21,-0.63 0.76,-1.1 1.42,-1.2l7.95,-1.15c0.6,-0.07 1.14,-0.43 1.41,-0.98l3.5,-7.18c0.08,-0.16 0.19,-0.31 0.32,-0.43l0.15,-0.12c0.07,-0.08 0.16,-0.15 0.25,-0.2l0.18,-0.07l0.27,-0.11l0.67,0c0.6,0.06 1.13,0.42 1.41,0.96l3.55,7.15c0.26,0.53 0.76,0.89 1.33,0.98l7.95,1.15c0.67,0.1 1.24,0.56 1.46,1.2c0.21,0.64 0.03,1.35 -0.47,1.81l-5.98,5.66z" fill="#ffff00" id="svg_1" stroke="#0FF" stroke-width="2"/>
 </g>
</svg>